<?xml version="1.0" encoding="utf-8"?>
<!-- Generator: Adobe Illustrator 19.1.0, SVG Export Plug-In . SVG Version: 6.00 Build 0)  -->
<svg version="1.1" id="Layer_1" xmlns="http://www.w3.org/2000/svg" xmlns:xlink="http://www.w3.org/1999/xlink" x="0px" y="0px"
	 width="500px" height="500px" viewBox="0 0 500 500" style="enable-background:new 0 0 500 500;" xml:space="preserve">
<style type="text/css">
	.st0{fill:#828B91;}
</style>
<path class="st0" d="M419.9,224.7h-25.3v-79.1c0-38-15.8-76-41.1-101.3C328.1,19,293.3,0,252.1,0c-38,0-76,15.8-101.3,44.3
	c-25.3,25.3-41.1,63.3-41.1,101.3v79.1l0,0H84.4c-9.5,0-19,9.5-19,19v208.9c0,9.5,9.5,15.8,19,19S166.7,500,249,500
	c85.4,0,155.1-25.3,164.6-28.5c9.5-3.2,19-9.5,19-19V243.7C438.8,231,429.4,224.7,419.9,224.7z M179.4,224.7v-15.8v-28.5v-34.8
	c0-22.2,9.5-44.3,22.2-57c12.7-15.8,31.6-22.2,50.6-22.2s38,9.5,50.6,22.2c12.7,15.8,22.2,34.8,22.2,57v79.1l0,0H179.4L179.4,224.7z
	"/>
</svg>
